<?xml version="1.0" encoding="UTF-8"?>
<svg width="752pt" height="752pt" version="1.1" viewBox="0 0 752 752" xmlns="http://www.w3.org/2000/svg">
 <path fill="#4285f4" d="m587.21 387.67c-17.566-8.4219-37.617-12.793-58.426-12.828 6.4141-34.055
 2.8281-68.594-11.188-97.824-1.2695-2.6484-4.0352-4.2422-6.9492-4.0156-24.383 1.8711-48.66
 10.344-70.75 24.539-12.551-32.02-33.219-59.469-59.883-77.707-2.4258-1.6562-5.6055-1.6562-8.0234
 0-26.664 18.25-47.324 45.691-59.879 77.707-22.094-14.199-46.367-22.672-70.75-24.539-2.9023-0.23828-5.6797
 1.3672-6.9492 4.0156-14.02 29.23-17.613 63.77-11.191 97.816-20.836 0.03125-40.867 4.4102-58.434
 12.84-2.6445 1.2695-4.2344 4.0312-4.0078 6.9492 3.5273 46.012 33.523 90.652 78.273 116.49 25.594
 14.781 54.094 22.305 81.594 22.301 19.422 0 38.316-3.8047 55.352-11.402 17.039 7.6016 35.93 11.402
 55.352 11.402 27.5 0 55.996-7.5195 81.594-22.301 44.762-25.84 74.754-70.473 78.273-116.49
 0.22266-2.9258-1.3711-5.6875-4.0078-6.9492zm-80.391-100.03c17.992 41.742 13.453 94.492-12.238
 138.98-21.699 37.582-56.07 65.023-93.441 75.828 32.777-32.688 52.391-81.137 52.391-132.46
 0-20.246-3.0977-40.031-8.793-58.605 19.391-13.051 40.66-21.238 62.082-23.734zm-130.82-53.227c39.18
 29.012 63.324 80.445 63.324 135.57 0 55.102-24.145 106.52-63.324
 135.54-39.168-29.027-63.312-80.441-63.312-135.54
 0-55.109 24.145-106.55 63.312-135.57zm-130.82 53.227c21.43 2.4961 42.699 10.684 62.09 23.742-5.6953
 18.57-8.793 38.355-8.793 58.602 0 51.316 19.621 99.766 52.398
 132.46-37.379-10.793-71.754-38.246-93.457-75.836-25.691-44.477-30.23-97.234-12.238-138.97zm0.98047
 211.16c-39.137-22.598-65.855-60.699-70.723-100.36 15.5-6.5859 33.012-9.7461 51.133-9.3359 4.1758
 15.305 10.324 30.367 18.547 44.609 23.688 41.023 61.488 70.938 102.69 82.598-32.562 7.0547-69.523
 1.0352-101.65-17.512zm259.68 0c-32.117 18.547-69.078 24.57-101.64 17.508 41.195-11.664 79.004-41.566
 102.68-82.586 8.2266-14.242 14.375-29.297 18.547-44.605 18.129-0.42188 35.621 2.75 51.133
 9.3359-4.8633 39.648-31.582 77.75-70.727 100.35z"/>
</svg>
